<mxfile host="app.diagrams.net" modified="2022-05-15T21:35:38.134Z" agent="5.0 (Windows)" etag="tIcNgYGzFWf3rC-g1lxa" version="18.0.5" type="github">
  <diagram id="-Ol2noJbdJzkCxClVJYH" name="Page-1">
    <mxGraphModel dx="1185" dy="627" grid="1" gridSize="10" guides="1" tooltips="1" connect="1" arrows="1" fold="1" page="1" pageScale="1" pageWidth="850" pageHeight="1100" math="0" shadow="0">
      <root>
        <mxCell id="0" />
        <mxCell id="1" parent="0" />
        <mxCell id="1VJiRsTP5niqIoKcgAii-23" value="" style="shape=mxgraph.mockup.containers.marginRect;rectMarginTop=10;strokeColor=#666666;strokeWidth=1;dashed=0;rounded=1;arcSize=5;recursiveResize=0;" vertex="1" parent="1">
          <mxGeometry x="40" y="160" width="240" height="190" as="geometry" />
        </mxCell>
        <mxCell id="1VJiRsTP5niqIoKcgAii-24" value="Statistics" style="shape=rect;strokeColor=none;fillColor=#008cff;strokeWidth=1;dashed=0;rounded=1;arcSize=20;fontColor=#ffffff;fontSize=17;spacing=2;spacingTop=-2;align=left;autosize=1;spacingLeft=4;resizeWidth=0;resizeHeight=0;perimeter=none;" vertex="1" parent="1VJiRsTP5niqIoKcgAii-23">
          <mxGeometry x="5" width="90" height="30" as="geometry" />
        </mxCell>
        <mxCell id="1VJiRsTP5niqIoKcgAii-25" value="Total locations" style="text;html=1;resizable=0;autosize=1;align=left;verticalAlign=middle;points=[];fillColor=none;strokeColor=none;rounded=0;fontSize=16;" vertex="1" parent="1VJiRsTP5niqIoKcgAii-23">
          <mxGeometry x="15" y="40" width="120" height="20" as="geometry" />
        </mxCell>
        <mxCell id="1VJiRsTP5niqIoKcgAii-26" value="&lt;font style=&quot;font-size: 10px;&quot;&gt;Top-level Locations&lt;/font&gt;" style="text;html=1;align=left;verticalAlign=middle;resizable=0;points=[];autosize=1;strokeColor=none;fillColor=none;fontSize=10;" vertex="1" parent="1VJiRsTP5niqIoKcgAii-23">
          <mxGeometry x="30" y="60" width="110" height="20" as="geometry" />
        </mxCell>
        <mxCell id="1VJiRsTP5niqIoKcgAii-28" value="&lt;div style=&quot;font-size: 10px;&quot; align=&quot;left&quot;&gt;Sub-locations&lt;/div&gt;" style="text;html=1;align=left;verticalAlign=middle;resizable=0;points=[];autosize=1;strokeColor=none;fillColor=none;fontSize=10;" vertex="1" parent="1VJiRsTP5niqIoKcgAii-23">
          <mxGeometry x="30" y="80" width="80" height="20" as="geometry" />
        </mxCell>
        <mxCell id="1VJiRsTP5niqIoKcgAii-29" value="Conflicts" style="text;html=1;resizable=0;autosize=1;align=left;verticalAlign=middle;points=[];fillColor=none;strokeColor=none;rounded=0;fontSize=16;" vertex="1" parent="1VJiRsTP5niqIoKcgAii-23">
          <mxGeometry x="15" y="110" width="80" height="20" as="geometry" />
        </mxCell>
        <mxCell id="1VJiRsTP5niqIoKcgAii-30" value="Name Conflicts" style="text;html=1;align=left;verticalAlign=middle;resizable=0;points=[];autosize=1;strokeColor=none;fillColor=none;fontSize=10;" vertex="1" parent="1VJiRsTP5niqIoKcgAii-23">
          <mxGeometry x="30" y="130" width="90" height="20" as="geometry" />
        </mxCell>
        <mxCell id="1VJiRsTP5niqIoKcgAii-31" value="Street Address Conflicts" style="text;html=1;align=left;verticalAlign=middle;resizable=0;points=[];autosize=1;strokeColor=none;fillColor=none;fontSize=10;" vertex="1" parent="1VJiRsTP5niqIoKcgAii-23">
          <mxGeometry x="30" y="150" width="130" height="20" as="geometry" />
        </mxCell>
        <mxCell id="1VJiRsTP5niqIoKcgAii-32" value="&lt;font size=&quot;1&quot;&gt;&lt;span style=&quot;font-size: 20px;&quot;&gt;287&lt;/span&gt;&lt;/font&gt;" style="text;html=1;align=right;verticalAlign=middle;resizable=0;points=[];autosize=1;strokeColor=none;fillColor=none;fontSize=10;fontStyle=1;fontColor=#5E69FF;" vertex="1" parent="1VJiRsTP5niqIoKcgAii-23">
          <mxGeometry x="180" y="40" width="50" height="20" as="geometry" />
        </mxCell>
        <mxCell id="1VJiRsTP5niqIoKcgAii-34" value="15" style="text;html=1;align=right;verticalAlign=middle;resizable=0;points=[];autosize=1;strokeColor=none;fillColor=none;fontSize=12;fontStyle=1;fontColor=#5E69FF;" vertex="1" parent="1VJiRsTP5niqIoKcgAii-23">
          <mxGeometry x="200" y="60" width="30" height="20" as="geometry" />
        </mxCell>
        <mxCell id="1VJiRsTP5niqIoKcgAii-35" value="272" style="text;html=1;align=right;verticalAlign=middle;resizable=0;points=[];autosize=1;strokeColor=none;fillColor=none;fontSize=12;fontStyle=1;fontColor=#5E69FF;" vertex="1" parent="1VJiRsTP5niqIoKcgAii-23">
          <mxGeometry x="190" y="80" width="40" height="20" as="geometry" />
        </mxCell>
        <mxCell id="1VJiRsTP5niqIoKcgAii-36" value="" style="html=1;verticalLabelPosition=bottom;labelBackgroundColor=#ffffff;verticalAlign=top;shadow=0;dashed=0;strokeWidth=2;shape=mxgraph.ios7.misc.info;strokeColor=#0080f0;sketch=0;fontSize=12;fontColor=#5E69FF;" vertex="1" parent="1VJiRsTP5niqIoKcgAii-23">
          <mxGeometry x="3" y="44" width="12" height="12" as="geometry" />
        </mxCell>
        <mxCell id="1VJiRsTP5niqIoKcgAii-37" value="" style="html=1;verticalLabelPosition=bottom;labelBackgroundColor=#ffffff;verticalAlign=top;shadow=0;dashed=0;strokeWidth=2;shape=mxgraph.ios7.misc.info;strokeColor=#0080f0;sketch=0;fontSize=12;fontColor=#5E69FF;" vertex="1" parent="1VJiRsTP5niqIoKcgAii-23">
          <mxGeometry x="3" y="114" width="12" height="12" as="geometry" />
        </mxCell>
        <mxCell id="1VJiRsTP5niqIoKcgAii-38" value="Navbar" style="html=1;shadow=0;dashed=0;fillColor=#343A40;strokeColor=none;fontSize=16;fontColor=#ffffff;align=left;spacing=15;" vertex="1" parent="1">
          <mxGeometry x="25" y="80" width="800" height="60" as="geometry" />
        </mxCell>
        <mxCell id="1VJiRsTP5niqIoKcgAii-39" value="Home" style="fillColor=none;strokeColor=none;fontSize=14;fontColor=#ffffff;align=center;" vertex="1" parent="1VJiRsTP5niqIoKcgAii-38">
          <mxGeometry width="70" height="40" relative="1" as="geometry">
            <mxPoint x="70" y="10" as="offset" />
          </mxGeometry>
        </mxCell>
        <mxCell id="1VJiRsTP5niqIoKcgAii-40" value="Features" style="fillColor=none;strokeColor=none;fontSize=14;fontColor=#9A9DA0;align=center;" vertex="1" parent="1VJiRsTP5niqIoKcgAii-38">
          <mxGeometry width="70" height="40" relative="1" as="geometry">
            <mxPoint x="140" y="10" as="offset" />
          </mxGeometry>
        </mxCell>
        <mxCell id="1VJiRsTP5niqIoKcgAii-41" value="Pricing" style="fillColor=none;strokeColor=none;fontSize=14;fontColor=#9A9DA0;align=center;spacingRight=0;" vertex="1" parent="1VJiRsTP5niqIoKcgAii-38">
          <mxGeometry width="80" height="40" relative="1" as="geometry">
            <mxPoint x="210" y="10" as="offset" />
          </mxGeometry>
        </mxCell>
        <mxCell id="1VJiRsTP5niqIoKcgAii-42" value="About" style="fillColor=none;strokeColor=none;fontSize=14;fontColor=#9A9DA0;align=center;" vertex="1" parent="1VJiRsTP5niqIoKcgAii-38">
          <mxGeometry width="80" height="40" relative="1" as="geometry">
            <mxPoint x="290" y="10" as="offset" />
          </mxGeometry>
        </mxCell>
        <mxCell id="1VJiRsTP5niqIoKcgAii-43" value="Search" style="html=1;shadow=0;dashed=0;shape=mxgraph.bootstrap.rrect;rSize=5;fontSize=14;fontColor=#1CA5B8;strokeColor=#1CA5B8;fillColor=none;" vertex="1" parent="1VJiRsTP5niqIoKcgAii-38">
          <mxGeometry x="1" width="70" height="40" relative="1" as="geometry">
            <mxPoint x="-80" y="10" as="offset" />
          </mxGeometry>
        </mxCell>
        <mxCell id="1VJiRsTP5niqIoKcgAii-44" value="Search" style="html=1;shadow=0;dashed=0;shape=mxgraph.bootstrap.rrect;rSize=5;fontSize=14;fontColor=#6C767D;strokeColor=#CED4DA;fillColor=#ffffff;align=left;spacing=10;" vertex="1" parent="1VJiRsTP5niqIoKcgAii-38">
          <mxGeometry x="1" width="180" height="40" relative="1" as="geometry">
            <mxPoint x="-270" y="10" as="offset" />
          </mxGeometry>
        </mxCell>
      </root>
    </mxGraphModel>
  </diagram>
</mxfile>
